<svg xmlns="http://www.w3.org/2000/svg" xmlns:xlink="http://www.w3.org/1999/xlink" width="1700" height="2121" viewBox="0 0 1700 2121"><defs><filter id="a" x="247" y="108" width="236" height="235" filterUnits="userSpaceOnUse"><feOffset input="SourceAlpha"/><feGaussianBlur stdDeviation="10" result="b"/><feFlood flood-color="#040082" flood-opacity="0.6"/><feComposite operator="in" in2="b"/><feComposite in="SourceGraphic"/></filter><filter id="c" x="529" y="108" width="235" height="235" filterUnits="userSpaceOnUse"><feOffset input="SourceAlpha"/><feGaussianBlur stdDeviation="10" result="d"/><feFlood flood-color="#020048" flood-opacity="0.6"/><feComposite operator="in" in2="d"/><feComposite in="SourceGraphic"/></filter><filter id="e" x="810" y="108" width="236" height="235" filterUnits="userSpaceOnUse"><feOffset input="SourceAlpha"/><feGaussianBlur stdDeviation="10" result="f"/><feFlood flood-color="#272727" flood-opacity="0.6"/><feComposite operator="in" in2="f"/><feComposite in="SourceGraphic"/></filter><filter id="g" x="1092" y="108" width="237" height="235" filterUnits="userSpaceOnUse"><feOffset input="SourceAlpha"/><feGaussianBlur stdDeviation="10" result="h"/><feFlood flood-color="#272727" flood-opacity="0.259"/><feComposite operator="in" in2="h"/><feComposite in="SourceGraphic"/></filter><filter id="i" x="1371" y="108" width="236" height="235" filterUnits="userSpaceOnUse"><feOffset input="SourceAlpha"/><feGaussianBlur stdDeviation="10" result="j"/><feFlood flood-color="#272727" flood-opacity="0.149"/><feComposite operator="in" in2="j"/><feComposite in="SourceGraphic"/></filter><filter id="k" x="247" y="1584" width="445" height="444" filterUnits="userSpaceOnUse"><feOffset dy="3" input="SourceAlpha"/><feGaussianBlur stdDeviation="10" result="l"/><feFlood flood-color="#040082" flood-opacity="0.51"/><feComposite operator="in" in2="l"/><feComposite in="SourceGraphic"/></filter><filter id="m" x="705" y="1584" width="444" height="444" filterUnits="userSpaceOnUse"><feOffset dy="3" input="SourceAlpha"/><feGaussianBlur stdDeviation="10" result="n"/><feFlood flood-opacity="0.122"/><feComposite operator="in" in2="n"/><feComposite in="SourceGraphic"/></filter><clipPath id="p"><rect width="1700" height="2121"/></clipPath></defs><g id="o" clip-path="url(#p)"><rect width="1700" height="2121" fill="#fff"/><g transform="matrix(1, 0, 0, 1, 0, 0)" filter="url(#a)"><path d="M87.5,0H176a0,0,0,0,1,0,0V87.5A87.5,87.5,0,0,1,88.5,175h-1A87.5,87.5,0,0,1,0,87.5v0A87.5,87.5,0,0,1,87.5,0Z" transform="translate(277 138)" fill="#040082"/></g><text transform="translate(305 115)" fill="#4b4b4b" font-size="32" font-family="Poppins-Medium, Poppins" font-weight="500"><tspan x="0" y="0">#040082</tspan></text><g transform="matrix(1, 0, 0, 1, 0, 0)" filter="url(#c)"><path d="M87.5,0H175a0,0,0,0,1,0,0V87.5A87.5,87.5,0,0,1,87.5,175h0A87.5,87.5,0,0,1,0,87.5v0A87.5,87.5,0,0,1,87.5,0Z" transform="translate(559 138)" fill="#020048"/></g><text transform="translate(586 115)" fill="#4b4b4b" font-size="32" font-family="Poppins-Medium, Poppins" font-weight="500"><tspan x="0" y="0">#020048</tspan></text><g transform="matrix(1, 0, 0, 1, 0, 0)" filter="url(#e)"><path d="M87.5,0H176a0,0,0,0,1,0,0V87.5A87.5,87.5,0,0,1,88.5,175h-1A87.5,87.5,0,0,1,0,87.5v0A87.5,87.5,0,0,1,87.5,0Z" transform="translate(840 138)" fill="#272727"/></g><text transform="translate(881 113)" fill="#4b4b4b" font-size="30" font-family="Poppins-Medium, Poppins" font-weight="500"><tspan x="0" y="0">#272727</tspan></text><g transform="matrix(1, 0, 0, 1, 0, 0)" filter="url(#g)"><path d="M87.5,0H177a0,0,0,0,1,0,0V87.5A87.5,87.5,0,0,1,89.5,175h-2A87.5,87.5,0,0,1,0,87.5v0A87.5,87.5,0,0,1,87.5,0Z" transform="translate(1122 138)" fill="#eee"/></g><text transform="translate(1171 113)" fill="#4b4b4b" font-size="30" font-family="Poppins-Medium, Poppins" font-weight="500"><tspan x="0" y="0">#EEEEEE</tspan></text><g transform="matrix(1, 0, 0, 1, 0, 0)" filter="url(#i)"><path d="M87.5,0H176a0,0,0,0,1,0,0V87.5A87.5,87.5,0,0,1,88.5,175h-1A87.5,87.5,0,0,1,0,87.5v0A87.5,87.5,0,0,1,87.5,0Z" transform="translate(1401 138)" fill="#fff"/></g><text transform="translate(1451 113)" fill="#4b4b4b" font-size="30" font-family="Poppins-Medium, Poppins" font-weight="500"><tspan x="0" y="0">#FFFFFF</tspan></text><text transform="translate(133 270) rotate(-90)" fill="#040082" font-size="43" font-family="Poppins-Medium, Poppins" font-weight="500"><tspan x="0" y="0">Colors</tspan></text><text transform="translate(133 1743) rotate(-90)" fill="#040082" font-size="43" font-family="Poppins-Medium, Poppins" font-weight="500"><tspan x="0" y="0">Logos</tspan></text><g transform="matrix(1, 0, 0, 1, 0, 0)" filter="url(#k)"><rect width="385" height="384" rx="80" transform="translate(277 1611)" fill="#040082"/></g><text transform="translate(380 1818)" fill="#fff" font-size="58" font-family="BeVietnam-Bold, Be Vietnam" font-weight="700"><tspan x="0" y="0">Besoft</tspan></text><g transform="matrix(1, 0, 0, 1, 0, 0)" filter="url(#m)"><rect width="384" height="384" rx="80" transform="translate(735 1611)" fill="#fff"/></g><text transform="translate(838 1818)" fill="#040082" font-size="58" font-family="BeVietnam-Bold, Be Vietnam" font-weight="700"><tspan x="0" y="0">Besoft</tspan></text><text transform="translate(133 1398) rotate(-90)" fill="#040082" font-size="43" font-family="Poppins-Medium, Poppins" font-weight="500"><tspan x="0" y="0">Buttons</tspan></text><rect width="382" height="113" transform="translate(277 1288)" fill="#040082"/><text transform="translate(419 1355)" fill="#fff" font-size="30" font-family="Poppins-Regular, Poppins"><tspan x="0" y="0">Button</tspan></text><text transform="translate(277 1254)" fill="#272727" font-size="30" font-family="Poppins-Regular, Poppins"><tspan x="0" y="0">Large</tspan></text><rect width="384" height="113" transform="translate(735 1288)" fill="#040082"/><text transform="translate(878 1355)" fill="#fff" font-size="30" font-family="Poppins-Regular, Poppins"><tspan x="0" y="0">Button</tspan></text><text transform="translate(735 1256)" fill="#272727" font-size="32" font-family="Poppins-Regular, Poppins"><tspan x="0" y="0">Hover</tspan></text><rect width="382" height="113" transform="translate(1195 1288)" fill="#040082"/><text transform="translate(1337 1355)" fill="#fff" font-size="30" font-family="Poppins-Regular, Poppins"><tspan x="0" y="0">Button</tspan></text><text transform="translate(1190 1256)" fill="#272727" font-size="32" font-family="Poppins-Regular, Poppins"><tspan x="0" y="0">Pressed</tspan></text><text transform="translate(133 632) rotate(-90)" fill="#040082" font-size="43" font-family="Poppins-Medium, Poppins" font-weight="500"><tspan x="0" y="0">Font</tspan></text><text transform="translate(277 612)" fill="#272727" font-size="80" font-family="Poppins-SemiBold, Poppins" font-weight="600"><tspan x="0" y="0">Poppins - Google fonts</tspan></text><text transform="translate(134 984) rotate(-90)" fill="#040082" font-size="44" font-family="Poppins-Medium, Poppins" font-weight="500"><tspan x="0" y="0">Type</tspan></text><text transform="translate(277 954)" fill="#272727" font-size="80" font-family="Poppins-SemiBold, Poppins" font-weight="600"><tspan x="0" y="0">AaBbCc</tspan></text><text transform="translate(277 875)" fill="#272727" font-size="23" font-family="Poppins-Medium, Poppins" font-weight="500"><tspan x="0" y="0">H1, H2</tspan></text><text transform="translate(277 999)" fill="#272727" font-size="23" font-family="Poppins-Regular, Poppins"><tspan x="0" y="0">40px - SemiBold</tspan></text><text transform="translate(733 952)" fill="#272727" font-size="38" font-family="Poppins-Medium, Poppins" font-weight="500"><tspan x="0" y="0">AaBbCc</tspan></text><text transform="translate(733 877)" fill="#272727" font-size="24" font-family="Poppins-Medium, Poppins" font-weight="500"><tspan x="0" y="0">H3</tspan></text><text transform="translate(735 999)" fill="#272727" font-size="23" font-family="Poppins-Regular, Poppins"><tspan x="0" y="0">20px - Regular</tspan></text><text transform="translate(1016 876)" fill="#272727" font-size="24" font-family="Poppins-Medium, Poppins" font-weight="500"><tspan x="0" y="0">P</tspan></text><text transform="translate(1016 951)" fill="#272727" font-size="23" font-family="Poppins-Regular, Poppins"><tspan x="0" y="0">AaBbCc</tspan></text><text transform="translate(1016 999)" fill="#272727" font-size="23" font-family="Poppins-Regular, Poppins"><tspan x="0" y="0">16px - Regular</tspan></text></g></svg>