<svg id="behance-line" xmlns="http://www.w3.org/2000/svg" width="24" height="24" viewBox="0 0 24 24">
  <path id="Path_5" data-name="Path 5" d="M0,0H24V24H0Z" fill="none"/>
  <path id="Path_6" data-name="Path 6" d="M7.5,11a2,2,0,0,0,0-4H3v4Zm1,2H3v4H8.5a2,2,0,0,0,0-4Zm2.063-1.428A4,4,0,0,1,8.5,19H1V5H7.5a4,4,0,0,1,3.063,6.572ZM15.5,6H21V7.5H15.5ZM23,14.5H15.5v.25A2.75,2.75,0,0,0,20.7,16h2.134A4.752,4.752,0,0,1,13.5,14.75v-1.5a4.75,4.75,0,0,1,9.5,0V14.5Zm-2.1-2a2.751,2.751,0,0,0-5.292,0Z" fill="#555"/>
</svg>
