<svg id="github-line" xmlns="http://www.w3.org/2000/svg" width="24" height="24" viewBox="0 0 24 24">
  <path id="Path_3" data-name="Path 3" d="M0,0H24V24H0Z" fill="none"/>
  <path id="Path_4" data-name="Path 4" d="M5.883,18.653a4.06,4.06,0,0,1-.86-.816q-.235-.288-.466-.579A2.716,2.716,0,0,0,3.5,16.309a1,1,0,1,1,.676-1.883,4.32,4.32,0,0,1,1.947,1.588c-.094-.117.34.427.433.539a2.351,2.351,0,0,0,.44.438,1.864,1.864,0,0,0,1.15.14,4.565,4.565,0,0,1,.2-1.095C5.38,15.31,3.7,13.4,3.7,9.64A5.467,5.467,0,0,1,4.758,6.348a5.189,5.189,0,0,1,.3-3.192,1,1,0,0,1,.63-.582A1.3,1.3,0,0,1,5.9,2.527a5.351,5.351,0,0,1,3.415,1.1,11.862,11.862,0,0,1,5.371,0,5.273,5.273,0,0,1,3.422-1.1,1.363,1.363,0,0,1,.218.05,1,1,0,0,1,.616.58,5.183,5.183,0,0,1,.3,3.19A5.433,5.433,0,0,1,20.3,9.64c0,3.757-1.674,5.665-4.642,6.392a4.791,4.791,0,0,1,.19,1.38c0,.936,0,1.841-.012,2.746a1,1,0,0,1-.019,1.928,1.565,1.565,0,0,1-1.983-1.525l0-.446.005-.7c.005-.708.007-1.338.007-2a1.8,1.8,0,0,0-.425-1.36,1,1,0,0,1,.54-1.752c2.967-.333,4.337-1.482,4.337-4.66a3.431,3.431,0,0,0-.913-2.4,1,1,0,0,1-.19-1.045,2.748,2.748,0,0,0,.1-1.614l-.01,0a6.727,6.727,0,0,0-1.858.949,1,1,0,0,1-.833.135,9.786,9.786,0,0,0-5.184,0,1,1,0,0,1-.83-.134A6.841,6.841,0,0,0,6.71,4.584,2.713,2.713,0,0,0,6.8,6.191a1,1,0,0,1-.189,1.045A3.454,3.454,0,0,0,5.7,9.64c0,3.172,1.371,4.328,4.322,4.66a1,1,0,0,1,.544,1.748,2.093,2.093,0,0,0-.429,1.364v3.15a1.57,1.57,0,0,1-1.96,1.528,1,1,0,0,1-.04-1.962v-.99a3.524,3.524,0,0,1-2.254-.485Z" fill="#555"/>
</svg>
